<svg xmlns="http://www.w3.org/2000/svg" xmlns:xlink="http://www.w3.org/1999/xlink" width="190" height="52" viewBox="0 0 190 52">
<rect width="190" height="52" fill="#ffffff"/>
<g transform="translate(8.45,4)"><g transform="translate(-199.4,-165)"><g data-paper-data="{&quot;isPaintingLayer&quot;:true}" fill-rule="nonzero" stroke-linecap="butt" stroke-linejoin="miter" stroke-miterlimit="10" stroke-dasharray="" stroke-dashoffset="0" style="mix-blend-mode: normal"><path d="M234.4,202c-18.77768,0 -34,-8.05887 -34,-18c0,-9.94113 15.22232,-18 34,-18c18.77768,0 34,8.05887 34,18c0,9.94113 -15.22232,18 -34,18z" data-paper-data="{&quot;index&quot;:null}" fill="#78909c" stroke="none" stroke-width="1"/><path d="M234.4,202c-18.77768,0 -34,-8.05887 -34,-18c0,-9.94113 15.22232,-18 34,-18c18.77768,0 34,8.05887 34,18c0,9.94113 -15.22232,18 -34,18z" data-paper-data="{&quot;index&quot;:null}" fill="none" stroke="#546e7a" stroke-width="2"/><path d="M262.4,198c-5.52285,0 -10,-6.26801 -10,-14c0,-7.73199 4.47715,-14 10,-14c5.52285,0 10,6.26801 10,14c0,7.73199 -4.47715,14 -10,14z" data-paper-data="{&quot;index&quot;:null}" fill="#607d8b" stroke="none" stroke-width="1"/><path d="M266.4,180c-1.10457,0 -2,-0.89543 -2,-2c0,-1.10457 0.89543,-2 2,-2c1.10457,0 2,0.89543 2,2c0,1.10457 -0.89543,2 -2,2z" data-paper-data="{&quot;index&quot;:null}" fill="#263238" stroke="none" stroke-width="1"/><path d="M272.4,184c4,2.66667 4.66667,6 2,10" data-paper-data="{&quot;index&quot;:null}" fill="none" stroke="#546e7a" stroke-width="3"/><path d="M218.525,208c-7.73199,0 -14,-3.13401 -14,-7c0,-3.86599 6.26801,-7 14,-7c7.73199,0 14,3.13401 14,7c0,3.86599 -6.26801,7 -14,7z" data-paper-data="{&quot;index&quot;:null}" fill="#607d8b" stroke="none" stroke-width="1"/><path d="M249.9625,202c-5.28123,0 -9.5625,-2.68629 -9.5625,-6c0,-3.31371 4.28127,-6 9.5625,-6c5.28123,0 9.5625,2.68629 9.5625,6c0,3.31371 -4.28127,6 -9.5625,6z" data-paper-data="{&quot;index&quot;:null}" fill="#607d8b" stroke="none" stroke-width="1"/><path d="M214.4,176.5c-1.38071,0 -2.5,-1.11929 -2.5,-2.5c0,-1.38071 1.11929,-2.5 2.5,-2.5c1.38071,0 2.5,1.11929 2.5,2.5c0,1.38071 -1.11929,2.5 -2.5,2.5z" data-paper-data="{&quot;index&quot;:null}" fill="#37474f" stroke="none" stroke-width="1"/></g></g></g>
<text x="47.5" y="49" font-family="sans-serif" font-size="8" text-anchor="middle" fill="#37474f">seal1</text>
<g transform="translate(103.45,4)"><g transform="translate(-199.4,-165)"><g data-paper-data="{&quot;isPaintingLayer&quot;:true}" fill-rule="nonzero" stroke-linecap="butt" stroke-linejoin="miter" stroke-miterlimit="10" stroke-dasharray="" stroke-dashoffset="0" style="mix-blend-mode: normal"><path d="M234.4,202c-18.77768,0 -34,-8.05887 -34,-18c0,-9.94113 15.22232,-18 34,-18c18.77768,0 34,8.05887 34,18c0,9.94113 -15.22232,18 -34,18z" data-paper-data="{&quot;index&quot;:null}" fill="#78909c" stroke="none" stroke-width="1"/><path d="M234.4,202c-18.77768,0 -34,-8.05887 -34,-18c0,-9.94113 15.22232,-18 34,-18c18.77768,0 34,8.05887 34,18c0,9.94113 -15.22232,18 -34,18z" data-paper-data="{&quot;index&quot;:null}" fill="none" stroke="#546e7a" stroke-width="2"/><path d="M262.4,198c-5.52285,0 -10,-6.26801 -10,-14c0,-7.73199 4.47715,-14 10,-14c5.52285,0 10,6.26801 10,14c0,7.73199 -4.47715,14 -10,14z" data-paper-data="{&quot;index&quot;:null}" fill="#607d8b" stroke="none" stroke-width="1"/><path d="M266.4,180c-1.10457,0 -2,-0.89543 -2,-2c0,-1.10457 0.89543,-2 2,-2c1.10457,0 2,0.89543 2,2c0,1.10457 -0.89543,2 -2,2z" data-paper-data="{&quot;index&quot;:null}" fill="#263238" stroke="none" stroke-width="1"/><path d="M272.4,184c4,2.66667 4.66667,6 2,10" data-paper-data="{&quot;index&quot;:null}" fill="none" stroke="#546e7a" stroke-width="3"/><path d="M218.525,206.25c-7.73199,0 -14,-3.13401 -14,-7c0,-3.86599 6.26801,-7 14,-7c7.73199,0 14,3.13401 14,7c0,3.86599 -6.26801,7 -14,7z" data-paper-data="{&quot;index&quot;:null}" fill="#607d8b" stroke="none" stroke-width="1"/><path d="M249.9625,204c-5.28123,0 -9.5625,-2.68629 -9.5625,-6c0,-3.31371 4.28127,-6 9.5625,-6c5.28123,0 9.5625,2.68629 9.5625,6c0,3.31371 -4.28127,6 -9.5625,6z" data-paper-data="{&quot;index&quot;:null}" fill="#607d8b" stroke="none" stroke-width="1"/><path d="M214.4,176.5c-1.38071,0 -2.5,-1.11929 -2.5,-2.5c0,-1.38071 1.11929,-2.5 2.5,-2.5c1.38071,0 2.5,1.11929 2.5,2.5c0,1.38071 -1.11929,2.5 -2.5,2.5z" data-paper-data="{&quot;index&quot;:null}" fill="#37474f" stroke="none" stroke-width="1"/></g></g></g>
<text x="142.5" y="49" font-family="sans-serif" font-size="8" text-anchor="middle" fill="#37474f">seal2</text>
</svg>